<?xml version="1.0" encoding="utf-8"?>
<!-- Generator: Adobe Illustrator 17.0.0, SVG Export Plug-In . SVG Version: 6.00 Build 0)  -->
<!DOCTYPE svg PUBLIC "-//W3C//DTD SVG 1.1//EN" "http://www.w3.org/Graphics/SVG/1.1/DTD/svg11.dtd">
<svg version="1.1" id="Layer_1" xmlns="http://www.w3.org/2000/svg" xmlns:xlink="http://www.w3.org/1999/xlink" x="0px" y="0px"
	 width="26.943px" height="34.09px" viewBox="0 0 26.943 34.09" enable-background="new 0 0 26.943 34.09" xml:space="preserve">
<path fill="#D22856" d="M13.62,0.017L13.472,0L0,1.412v24.661l13.472,8.017l13.43-7.99l0.042-0.026V1.412L13.62,0.017z
	 M25.019,12.127L13.495,5.334L13.494,5.23l-0.087,0.05l-0.088-0.056v0.109L1.925,12.118V3.147l11.547-1.212l11.547,1.212
	C25.019,3.147,25.019,12.127,25.019,12.127z M13.405,6.787L24.923,13.5l-4.479,2.64l-7.093-4.221l-0.013,1.415l5.904,3.513
	l-0.86,0.507l-5.031-2.992l-0.013,1.415l3.827,2.275l-0.782,0.523l-3.032-1.787l-0.013,1.413l1.852,1.091l-1.8,1.081L2.034,13.622
	L13.405,6.787z M1.925,15.127l11.411,6.791l0.015,1.044L5.41,18.234L5.395,19.65l7.979,4.796l0.017,1.076l-7.972-4.741l-0.013,1.415
	l8.021,4.821l0.045,0.026l8.143-4.872v-1.268l-0.011-0.148v-3.761l3.415-2.036v10.02L13.472,31.85L1.925,24.979V15.127z"/>
</svg>
